<?xml version="1.0" encoding="UTF-8" standalone="no"?>
<!-- Created with Inkscape (http://www.inkscape.org/) -->

<svg
   width="18mm"
   height="18mm"
   viewBox="0 0 18 18"
   version="1.1"
   id="svg1"
   xml:space="preserve"
   xmlns="http://www.w3.org/2000/svg"
   xmlns:svg="http://www.w3.org/2000/svg"><defs
     id="defs1" /><path
     style="display:inline;fill:#5c2321;fill-opacity:1;stroke:none;stroke-width:0.264583;stroke-opacity:1"
     d="m 3.4561197,8.1855468 c 0,0 0.6985724,-0.025058 0.9952399,-0.012739 0.2966674,0.012319 0.7847651,0.086652 0.7847651,0.086652 0,0 0.054271,1.9295382 0.2787841,2.7538222 0.578776,2.124935 1.1162109,2.199349 1.1162109,2.199349 0,0 -0.4308805,-1.380686 -0.6118489,-2.629297 -0.1809684,-1.2486109 -0.066146,-2.2158857 -0.066146,-2.2158857 0,0 0.9425781,-0.066146 1.0748698,0.1488281 0.1322917,0.214974 -0.074414,1.0252607 0.066146,1.9843756 0.1405601,0.959115 0.5787761,1.240234 0.5787761,1.240234 0,0 -0.1488282,-1.207161 -0.1157552,-1.686718 0.033073,-0.4795582 0.363802,-1.0417978 0.363802,-1.0417978 0,0 0.6531902,0.049609 0.9425782,0.65319 0.289388,0.6035808 -0.3614042,1.8788988 -0.2811198,2.8690758 0.1736324,2.141472 1.3559895,2.282031 1.3559895,2.282031 l -0.082682,-1.322916 0.2315096,0.06615 -0.08268,-0.611849 h 0.347266 l 0.644922,-0.727604 -0.04134,-0.429948 1.546158,-0.934311 -0.578776,-1.0169919 1.322917,-0.1157552 0.115755,-0.611849 c 0,0 0.581532,-0.019292 0.926042,0.1116211 0.344509,0.1309136 0.74414,0.028939 0.74414,0.028939 L 14.93242,8.6154984 c 0,0 -2.124935,-0.6945313 -2.885612,-0.611849 C 11.286133,8.086328 10.153385,8.698177 9.673828,8.8139322 9.1942707,8.9296874 8.0201822,7.9540364 8.0201822,7.9540364 c 0,0 0.2913534,-0.7403617 0.6201171,-1.1906251 C 8.969063,6.313148 9.6076822,5.5397135 9.6076822,5.5397135 c 0,0 -0.4635143,-0.096832 -1.2319662,0.6366536 C 7.9329594,6.598977 7.7555989,7.3917968 7.3421874,7.507552 6.928776,7.6233072 6.0688801,7.0941405 6.0688801,7.0941405 c 0,0 0.5365349,-1.3132971 0.9425781,-2.0174479 0.4060432,-0.7041508 1.3807943,-2.1414713 1.3807943,-2.1414713 0,0 -1.5875,0.8433594 -2.2572265,1.9761068 -0.6697265,1.1327474 -0.79375,2.0009114 -0.79375,2.0009114 L 3.4891927,6.7799478 c 0,0 -0.1975204,0.1827321 -0.1964313,0.6515994 0.00109,0.4688673 0.1633583,0.7539996 0.1633583,0.7539996 z"
     id="arretes" /></svg>
