<?xml version="1.0" encoding="UTF-8" standalone="no"?>
<!-- Created with Inkscape (http://www.inkscape.org/) -->

<svg
   width="18mm"
   height="18mm"
   viewBox="0 0 18 18"
   version="1.1"
   id="svg1"
   xml:space="preserve"
   xmlns="http://www.w3.org/2000/svg"
   xmlns:svg="http://www.w3.org/2000/svg"><defs
     id="defs1" /><path
     id="baguettes-1"
     style="display:inline;fill:#2b363b;fill-opacity:1;stroke:none;stroke-width:0.264583;stroke-opacity:1"
     d="m 5.6239461,2.8453044 c -0.161566,0.00255 -0.3786153,0.057025 -0.6015136,0.2645833 -0.4457968,0.4151164 -0.2914551,0.8056356 -0.2914551,0.8056356 0,0 1.5770718,1.8686946 3.9175903,4.3966308 L 3.0437419,6.6595418 c 0,0 -0.4625781,0.064942 -0.6108155,0.655774 -0.1482374,0.5908317 0.1937867,0.8340576 0.1937867,0.8340576 0,0 3.0914465,0.9384317 7.2378011,1.9456176 0.1999238,0.04856 0.4124668,0.09518 0.6335528,0.14056 1.556495,1.483949 3.627169,3.126424 3.627169,3.126424 0,0 0.159634,0.131224 0.350366,-0.06459 0.190728,-0.195822 0.0047,-0.389641 0.0047,-0.389641 l -1.998844,-2.330607 c 1.65309,0.243688 3.166731,0.38809 3.166731,0.38809 0,0 0.205384,0.02312 0.258899,-0.244946 0.05351,-0.268068 -0.208256,-0.329179 -0.208256,-0.329179 L 11.179163,9.0583618 5.8911133,2.8923299 c 0,0 -0.1056012,-0.049574 -0.2671672,-0.047026 z" /></svg>
