<?xml version="1.0" encoding="UTF-8" standalone="no"?>
<!-- Created with Inkscape (http://www.inkscape.org/) -->

<svg
   width="18mm"
   height="18mm"
   viewBox="0 0 18 18"
   version="1.1"
   id="svg1"
   xml:space="preserve"
   xmlns="http://www.w3.org/2000/svg"
   xmlns:svg="http://www.w3.org/2000/svg"><defs
     id="defs1" /><path
     id="baguettes-2"
     style="display:inline;fill:#5c2321;fill-opacity:1;stroke:none;stroke-width:0.264583;stroke-opacity:1"
     d="m 3.2556152,5.1035645 c 0,0 -0.4666635,0.026773 -0.6624918,0.6035807 -0.1958284,0.5768082 0.1250569,0.8474935 0.1250569,0.8474935 0,0 3.0047485,1.1862133 7.0553833,2.5274943 2.1078394,0.6979655 5.6937094,1.33842 5.6937094,1.33842 0,0 0.202867,0.0401 0.278019,-0.222726 0.07515,-0.2628225 -0.180351,-0.3457152 -0.180351,-0.3457152 z M 2.8887126,7.9695394 c 0,0 -0.4625781,0.064426 -0.6108155,0.6552571 -0.1482374,0.5908317 0.1937867,0.8345744 0.1937867,0.8345744 0,0 3.0914465,0.9379151 7.2378011,1.9451011 2.1576501,0.524112 5.7836261,0.870748 5.7836261,0.870748 0,0 0.205384,0.02312 0.258899,-0.244947 0.05351,-0.268068 -0.208256,-0.329695 -0.208256,-0.329695 z" /></svg>
