<?xml version="1.0" encoding="UTF-8" standalone="no"?>
<!-- Created with Inkscape (http://www.inkscape.org/) -->

<svg
   width="18mm"
   height="18mm"
   viewBox="0 0 18 18"
   version="1.1"
   id="svg1"
   inkscape:version="1.4.3 (fcd0343856, 2026-01-01)"
   sodipodi:docname="main.svg"
   xml:space="preserve"
   inkscape:export-filename="baguettes-2.svg"
   inkscape:export-xdpi="300"
   inkscape:export-ydpi="300"
   xmlns:inkscape="http://www.inkscape.org/namespaces/inkscape"
   xmlns:sodipodi="http://sodipodi.sourceforge.net/DTD/sodipodi-0.dtd"
   xmlns:xlink="http://www.w3.org/1999/xlink"
   xmlns="http://www.w3.org/2000/svg"
   xmlns:svg="http://www.w3.org/2000/svg"><sodipodi:namedview
     id="namedview1"
     pagecolor="#ffffff"
     bordercolor="#000000"
     borderopacity="0.25"
     inkscape:showpageshadow="2"
     inkscape:pageopacity="0.0"
     inkscape:pagecheckerboard="0"
     inkscape:deskcolor="#d1d1d1"
     inkscape:document-units="mm"
     inkscape:zoom="11.313709"
     inkscape:cx="30.273009"
     inkscape:cy="35.753087"
     inkscape:window-width="1870"
     inkscape:window-height="1131"
     inkscape:window-x="0"
     inkscape:window-y="0"
     inkscape:window-maximized="1"
     inkscape:current-layer="svg1" /><defs
     id="defs1"><inkscape:path-effect
       effect="roughen"
       id="path-effect15"
       is_visible="true"
       lpeversion="1.2"
       global_randomize="1;1287802185"
       displace_x="0.17;1"
       displace_y="0.14;1"
       method="segments"
       max_segment_size="0.134"
       segments="16"
       handles="along"
       shift_nodes="true"
       fixed_displacement="false"
       spray_tool_friendly="false" /><inkscape:path-effect
       effect="roughen"
       id="path-effect14"
       is_visible="true"
       lpeversion="1.2"
       global_randomize="1;3106568968"
       displace_x="0.37;1"
       displace_y="0.23;1"
       method="segments"
       max_segment_size="0.0977761"
       segments="10"
       handles="along"
       shift_nodes="true"
       fixed_displacement="false"
       spray_tool_friendly="false" /><inkscape:path-effect
       effect="roughen"
       id="path-effect3"
       is_visible="true"
       lpeversion="1.2"
       global_randomize="1;279394551"
       displace_x="0.44;1"
       displace_y="0.32;1"
       method="segments"
       max_segment_size="0.053"
       segments="6"
       handles="along"
       shift_nodes="true"
       fixed_displacement="false"
       spray_tool_friendly="false" /></defs><image
     width="53.742165"
     height="17.610666"
     preserveAspectRatio="none"
     xlink:href="scan.png"
     id="reference"
     x="-35.072525"
     y="0.81304681"
     style="display:none;stroke:#26333b;stroke-opacity:1"
     inkscape:svg-dpi="96" /><path
     id="sushi"
     style="baseline-shift:baseline;display:inline;overflow:visible;opacity:1;vector-effect:none;fill:#263437;enable-background:accumulate;stop-color:#000000;stop-opacity:1"
     d="M 8.459432,3.6493896 C 7.811875,3.6188379 7.2064902,3.6524171 6.6714274,3.7455078 6.1363647,3.8385987 5.6699612,3.9908158 5.3004517,4.2090454 4.9309422,4.427275 4.6549332,4.7189806 4.5397746,5.0751424 l -0.00362,0.011369 -0.8500773,4.3408203 c -0.9493797,3.0969793 9.4113457,5.4856053 10.3998817,2.4282753 0.0044,-0.01346 0.0065,-0.0273 0.01033,-0.04082 0.01966,-0.06944 0.03451,-0.13956 0.04134,-0.210323 L 14.943791,7.4863647 C 15.058915,7.130207 14.995107,6.759664 14.808398,6.4125285 14.62169,6.0653929 14.311624,5.7332379 13.907161,5.422408 13.098237,4.8007486 11.905106,4.2634721 10.499618,3.9377441 9.796871,3.7748801 9.1069889,3.6799414 8.459432,3.6493896 Z M 7.0533163,4.085022 7.9421509,8.0196655 C 7.8239404,8.0100401 7.7064175,8.0024419 7.5907511,7.9969279 6.9441776,7.9661048 6.3401714,7.9992301 5.8068807,8.0920125 5.1769432,8.2016098 4.633132,8.3933047 4.2462524,8.67854 L 4.933549,5.1666097 4.9340658,5.1650594 C 5.0113305,4.9276877 5.1971029,4.7196512 5.4999227,4.5408081 5.8033985,4.3615775 6.2193337,4.2199855 6.7158691,4.1335978 6.7495053,4.1277458 7.0533163,4.085022 7.0533163,4.085022 Z m 0.5177978,4.3160156 c 0.6215962,0.029187 1.2884683,0.1190219 1.9678385,0.2764689 0.2550145,0.059101 3.2479254,0.7808863 4.0550494,2.2815145 0.105678,0.19648 0.153387,0.378906 0.146245,0.552421 l -0.04806,0.245463 C 12.775687,14.281576 3.2619995,12.053603 4.076237,9.5353353 4.2303559,9.0586771 4.8784784,8.6638299 5.8750936,8.4904378 6.3734012,8.4037418 6.9495179,8.3718499 7.5711141,8.4010376 Z M 8.1090658,9.2635173 C 7.7309335,9.2470863 7.376365,9.2649298 7.0615845,9.3146769 6.7468037,9.3644239 6.4699122,9.4463267 6.2471639,9.5658244 6.0244156,9.6853221 5.8507928,9.8493048 5.7789754,10.051066 c -0.071817,0.201761 -0.030903,0.410913 0.081649,0.600997 0.112552,0.190084 0.2969035,0.367712 0.5348511,0.533818 0.4758947,0.33221 1.1736937,0.615554 1.99316,0.788065 0.8194672,0.172511 1.6075109,0.201813 2.2370725,0.102319 0.31478,-0.04975 0.589089,-0.130616 0.811837,-0.250113 0.222748,-0.119498 0.396371,-0.283481 0.468188,-0.485242 0.07182,-0.201762 0.03142,-0.410913 -0.08113,-0.600997 C 11.712048,10.549829 11.529765,10.371167 11.291817,10.205062 10.815922,9.8728512 10.118124,9.5895071 9.2986572,9.4169963 8.8889241,9.3307409 8.487198,9.2799482 8.1090658,9.2635173 Z M 7.5545776,9.5699585 c 0.4853978,-0.02312 1.0534462,0.021606 1.6381429,0.144694 0.7795966,0.1641175 1.4391675,0.4366965 1.8655195,0.7343225 0.213175,0.148812 0.368515,0.303298 0.452685,0.44545 0.08417,0.142154 0.09875,0.265732 0.05943,0.376205 -0.03932,0.110473 -0.133139,0.208808 -0.299723,0.298173 -0.16658,0.08937 -0.402703,0.162137 -0.684713,0.206706 -0.56402,0.08914 -1.3122652,0.06696 -2.0918618,-0.09715 C 7.7144575,11.514238 7.0533367,11.239593 6.6269857,10.941968 6.4138099,10.793155 6.2605385,10.63867 6.1763672,10.496517 6.0921958,10.354364 6.0750324,10.232335 6.1143555,10.121863 6.1536785,10.01139 6.2500814,9.9115051 6.4166626,9.8221395 6.5832435,9.7327738 6.8172982,9.6600018 7.0993083,9.6154338 7.2403132,9.5931497 7.3927784,9.5776653 7.5545776,9.5699585 Z"
     sodipodi:nodetypes="ssscccccccssssccsscccsscsssccsssssssssssssssssssssscscssssss" /><path
     style="display:inline;fill:#5c2321;fill-opacity:1;stroke:none;stroke-width:0.264583;stroke-opacity:1"
     d="m 3.4561197,8.1855468 c 0,0 0.6985724,-0.025058 0.9952399,-0.012739 0.2966674,0.012319 0.7847651,0.086652 0.7847651,0.086652 0,0 0.054271,1.9295382 0.2787841,2.7538222 0.578776,2.124935 1.1162109,2.199349 1.1162109,2.199349 0,0 -0.4308805,-1.380686 -0.6118489,-2.629297 -0.1809684,-1.2486109 -0.066146,-2.2158857 -0.066146,-2.2158857 0,0 0.9425781,-0.066146 1.0748698,0.1488281 0.1322917,0.214974 -0.074414,1.0252607 0.066146,1.9843756 0.1405601,0.959115 0.5787761,1.240234 0.5787761,1.240234 0,0 -0.1488282,-1.207161 -0.1157552,-1.686718 0.033073,-0.4795582 0.363802,-1.0417978 0.363802,-1.0417978 0,0 0.6531902,0.049609 0.9425782,0.65319 0.289388,0.6035808 -0.3614042,1.8788988 -0.2811198,2.8690758 0.1736324,2.141472 1.3559895,2.282031 1.3559895,2.282031 l -0.082682,-1.322916 0.2315096,0.06615 -0.08268,-0.611849 h 0.347266 l 0.644922,-0.727604 -0.04134,-0.429948 1.546158,-0.934311 -0.578776,-1.0169919 1.322917,-0.1157552 0.115755,-0.611849 c 0,0 0.581532,-0.019292 0.926042,0.1116211 0.344509,0.1309136 0.74414,0.028939 0.74414,0.028939 L 14.93242,8.6154984 c 0,0 -2.124935,-0.6945313 -2.885612,-0.611849 C 11.286133,8.086328 10.153385,8.698177 9.673828,8.8139322 9.1942707,8.9296874 8.0201822,7.9540364 8.0201822,7.9540364 c 0,0 0.2913534,-0.7403617 0.6201171,-1.1906251 C 8.969063,6.313148 9.6076822,5.5397135 9.6076822,5.5397135 c 0,0 -0.4635143,-0.096832 -1.2319662,0.6366536 C 7.9329594,6.598977 7.7555989,7.3917968 7.3421874,7.507552 6.928776,7.6233072 6.0688801,7.0941405 6.0688801,7.0941405 c 0,0 0.5365349,-1.3132971 0.9425781,-2.0174479 0.4060432,-0.7041508 1.3807943,-2.1414713 1.3807943,-2.1414713 0,0 -1.5875,0.8433594 -2.2572265,1.9761068 -0.6697265,1.1327474 -0.79375,2.0009114 -0.79375,2.0009114 L 3.4891927,6.7799478 c 0,0 -0.1975204,0.1827321 -0.1964313,0.6515994 0.00109,0.4688673 0.1633583,0.7539996 0.1633583,0.7539996 z"
     id="arretes"
     sodipodi:nodetypes="czcsczcszcsczsccccccccccczcccsczcssczczcczc" /><path
     id="baguettes-1"
     style="display:inline;fill:#2b363b;fill-opacity:1;stroke:none;stroke-width:0.264583;stroke-opacity:1"
     d="m 5.6239461,2.8453044 c -0.161566,0.00255 -0.3786153,0.057025 -0.6015136,0.2645833 -0.4457968,0.4151164 -0.2914551,0.8056356 -0.2914551,0.8056356 0,0 1.5770718,1.8686946 3.9175903,4.3966308 L 3.0437419,6.6595418 c 0,0 -0.4625781,0.064942 -0.6108155,0.655774 -0.1482374,0.5908317 0.1937867,0.8340576 0.1937867,0.8340576 0,0 3.0914465,0.9384317 7.2378011,1.9456176 0.1999238,0.04856 0.4124668,0.09518 0.6335528,0.14056 1.556495,1.483949 3.627169,3.126424 3.627169,3.126424 0,0 0.159634,0.131224 0.350366,-0.06459 0.190728,-0.195822 0.0047,-0.389641 0.0047,-0.389641 l -1.998844,-2.330607 c 1.65309,0.243688 3.166731,0.38809 3.166731,0.38809 0,0 0.205384,0.02312 0.258899,-0.244946 0.05351,-0.268068 -0.208256,-0.329179 -0.208256,-0.329179 L 11.179163,9.0583618 5.8911133,2.8923299 c 0,0 -0.1056012,-0.049574 -0.2671672,-0.047026 z" /><path
     id="baguettes-2"
     style="display:inline;fill:#5c2321;fill-opacity:1;stroke:none;stroke-width:0.264583;stroke-opacity:1"
     d="m 3.2556152,5.1035645 c 0,0 -0.4666635,0.026773 -0.6624918,0.6035807 -0.1958284,0.5768082 0.1250569,0.8474935 0.1250569,0.8474935 0,0 3.0047485,1.1862133 7.0553833,2.5274943 2.1078394,0.6979655 5.6937094,1.33842 5.6937094,1.33842 0,0 0.202867,0.0401 0.278019,-0.222726 0.07515,-0.2628225 -0.180351,-0.3457152 -0.180351,-0.3457152 z M 2.8887126,7.9695394 c 0,0 -0.4625781,0.064426 -0.6108155,0.6552571 -0.1482374,0.5908317 0.1937867,0.8345744 0.1937867,0.8345744 0,0 3.0914465,0.9379151 7.2378011,1.9451011 2.1576501,0.524112 5.7836261,0.870748 5.7836261,0.870748 0,0 0.205384,0.02312 0.258899,-0.244947 0.05351,-0.268068 -0.208256,-0.329695 -0.208256,-0.329695 z" /></svg>
