<?xml version="1.0" encoding="UTF-8" standalone="no"?>
<!-- Created with Inkscape (http://www.inkscape.org/) -->

<svg
   width="18mm"
   height="18mm"
   viewBox="0 0 18 18"
   version="1.1"
   id="svg1"
   xml:space="preserve"
   xmlns="http://www.w3.org/2000/svg"
   xmlns:svg="http://www.w3.org/2000/svg"><defs
     id="defs1" /><path
     id="sushi"
     style="baseline-shift:baseline;display:inline;overflow:visible;opacity:1;vector-effect:none;fill:#263437;enable-background:accumulate;stop-color:#000000;stop-opacity:1"
     d="M 8.459432,3.6493896 C 7.811875,3.6188379 7.2064902,3.6524171 6.6714274,3.7455078 6.1363647,3.8385987 5.6699612,3.9908158 5.3004517,4.2090454 4.9309422,4.427275 4.6549332,4.7189806 4.5397746,5.0751424 l -0.00362,0.011369 -0.8500773,4.3408203 c -0.9493797,3.0969793 9.4113457,5.4856053 10.3998817,2.4282753 0.0044,-0.01346 0.0065,-0.0273 0.01033,-0.04082 0.01966,-0.06944 0.03451,-0.13956 0.04134,-0.210323 L 14.943791,7.4863647 C 15.058915,7.130207 14.995107,6.759664 14.808398,6.4125285 14.62169,6.0653929 14.311624,5.7332379 13.907161,5.422408 13.098237,4.8007486 11.905106,4.2634721 10.499618,3.9377441 9.796871,3.7748801 9.1069889,3.6799414 8.459432,3.6493896 Z M 7.0533163,4.085022 7.9421509,8.0196655 C 7.8239404,8.0100401 7.7064175,8.0024419 7.5907511,7.9969279 6.9441776,7.9661048 6.3401714,7.9992301 5.8068807,8.0920125 5.1769432,8.2016098 4.633132,8.3933047 4.2462524,8.67854 L 4.933549,5.1666097 4.9340658,5.1650594 C 5.0113305,4.9276877 5.1971029,4.7196512 5.4999227,4.5408081 5.8033985,4.3615775 6.2193337,4.2199855 6.7158691,4.1335978 6.7495053,4.1277458 7.0533163,4.085022 7.0533163,4.085022 Z m 0.5177978,4.3160156 c 0.6215962,0.029187 1.2884683,0.1190219 1.9678385,0.2764689 0.2550145,0.059101 3.2479254,0.7808863 4.0550494,2.2815145 0.105678,0.19648 0.153387,0.378906 0.146245,0.552421 l -0.04806,0.245463 C 12.775687,14.281576 3.2619995,12.053603 4.076237,9.5353353 4.2303559,9.0586771 4.8784784,8.6638299 5.8750936,8.4904378 6.3734012,8.4037418 6.9495179,8.3718499 7.5711141,8.4010376 Z M 8.1090658,9.2635173 C 7.7309335,9.2470863 7.376365,9.2649298 7.0615845,9.3146769 6.7468037,9.3644239 6.4699122,9.4463267 6.2471639,9.5658244 6.0244156,9.6853221 5.8507928,9.8493048 5.7789754,10.051066 c -0.071817,0.201761 -0.030903,0.410913 0.081649,0.600997 0.112552,0.190084 0.2969035,0.367712 0.5348511,0.533818 0.4758947,0.33221 1.1736937,0.615554 1.99316,0.788065 0.8194672,0.172511 1.6075109,0.201813 2.2370725,0.102319 0.31478,-0.04975 0.589089,-0.130616 0.811837,-0.250113 0.222748,-0.119498 0.396371,-0.283481 0.468188,-0.485242 0.07182,-0.201762 0.03142,-0.410913 -0.08113,-0.600997 C 11.712048,10.549829 11.529765,10.371167 11.291817,10.205062 10.815922,9.8728512 10.118124,9.5895071 9.2986572,9.4169963 8.8889241,9.3307409 8.487198,9.2799482 8.1090658,9.2635173 Z M 7.5545776,9.5699585 c 0.4853978,-0.02312 1.0534462,0.021606 1.6381429,0.144694 0.7795966,0.1641175 1.4391675,0.4366965 1.8655195,0.7343225 0.213175,0.148812 0.368515,0.303298 0.452685,0.44545 0.08417,0.142154 0.09875,0.265732 0.05943,0.376205 -0.03932,0.110473 -0.133139,0.208808 -0.299723,0.298173 -0.16658,0.08937 -0.402703,0.162137 -0.684713,0.206706 -0.56402,0.08914 -1.3122652,0.06696 -2.0918618,-0.09715 C 7.7144575,11.514238 7.0533367,11.239593 6.6269857,10.941968 6.4138099,10.793155 6.2605385,10.63867 6.1763672,10.496517 6.0921958,10.354364 6.0750324,10.232335 6.1143555,10.121863 6.1536785,10.01139 6.2500814,9.9115051 6.4166626,9.8221395 6.5832435,9.7327738 6.8172982,9.6600018 7.0993083,9.6154338 7.2403132,9.5931497 7.3927784,9.5776653 7.5545776,9.5699585 Z" /></svg>
